<svg width="32" height="14" viewBox="0 0 32 14" fill="none" xmlns="http://www.w3.org/2000/svg">
<rect width="32" height="13.8417" fill="#0B1920"/>
<g filter="url(#filter0_d_94_5)">
<path fill-rule="evenodd" clip-rule="evenodd" d="M18.4744 2.7452C18.3909 2.46318 18.1478 2.24016 17.8571 2.17829C17.5535 2.11498 17.2312 2.20275 17.0269 2.40563C16.8686 2.56103 16.7996 2.73801 16.7996 2.98405C16.7996 3.22865 16.873 3.41139 17.037 3.57685C17.2197 3.75959 17.437 3.83872 17.7147 3.82146C18.0859 3.79988 18.3866 3.55959 18.4758 3.21426C18.5046 3.09916 18.5046 2.84736 18.4744 2.7452ZM8.43123 3.60995C7.7895 2.98837 6.99958 2.64736 6.02979 2.57542C5.24562 2.51642 4.45713 2.68621 3.82116 3.05167C3.27871 3.3639 2.89742 3.7193 2.5521 4.23441C2.25281 4.68189 2.05281 5.19844 1.96936 5.73944C1.93339 5.97398 1.93339 6.59844 1.96936 6.83297C2.08159 7.55671 2.33195 8.15239 2.74202 8.6675C2.86145 8.81714 3.16217 9.11642 3.31756 9.24016C3.74634 9.58261 4.24706 9.8229 4.80677 9.95527C5.12763 10.0315 5.24706 10.0445 5.74922 10.0517L6.21684 10.0589L6.18807 10.0258C6.17224 10.0071 6.05569 9.88045 5.92907 9.74664C5.80102 9.61139 5.51037 9.30203 5.28159 9.05743C4.72332 8.46031 4.71325 8.45024 4.50174 8.31067C4.11037 8.05167 3.87296 7.79268 3.68015 7.41283C3.49742 7.05024 3.41397 6.69052 3.4154 6.25743C3.4154 5.5639 3.65281 5.00275 4.13915 4.53944C4.48735 4.20851 4.96217 3.997 5.4931 3.93944C5.6931 3.91786 6.06145 3.93225 6.24418 3.96966C6.7003 4.06175 7.10174 4.27038 7.41253 4.57973C7.59382 4.75959 7.70749 4.92218 7.82835 5.1711C7.97799 5.47613 8.05281 5.75239 8.08015 6.08477C8.11037 6.45743 8.05281 6.82865 7.90893 7.18405C7.8339 7.36701 7.71701 7.572 7.6039 7.72505C8.01072 8.14159 8.23493 8.37018 8.62404 8.76534L8.67728 8.70923C8.96648 8.39988 9.25569 7.86462 9.3967 7.37829C9.49598 7.03441 9.53771 6.72362 9.53771 6.30779C9.53627 5.22865 9.16504 4.32362 8.43123 3.60995ZM23.3046 4.71067C23.0413 4.57973 22.7665 4.49628 22.4686 4.45887C22.296 4.43729 21.8557 4.43009 21.6845 4.44448C21.2341 4.48477 20.7478 4.65311 20.3694 4.9006C19.8125 5.26319 19.4025 5.8416 19.2384 6.49484C19.178 6.73225 19.1593 6.88908 19.1593 7.14376C19.1593 7.51354 19.201 7.77685 19.3046 8.08045C19.5564 8.81139 20.0284 9.33801 20.7176 9.66031C21.3003 9.93225 22.1334 9.99988 22.801 9.83153C23.437 9.67182 23.9636 9.30203 24.3132 8.76966C24.3648 8.6907 24.3884 8.65465 24.3802 8.62849C24.3734 8.6065 24.3441 8.5915 24.2902 8.5639C24.1737 8.50491 23.5823 8.17398 23.4427 8.08908C23.3737 8.04736 23.3118 8.01283 23.3061 8.01283C23.3003 8.01283 23.2787 8.04016 23.2571 8.0747C23.1924 8.17685 23.0456 8.34088 22.9463 8.42434C22.8341 8.51786 22.6068 8.63297 22.4528 8.6747C22.1435 8.75815 21.7276 8.72937 21.4298 8.60275C21.2068 8.50779 20.9593 8.3006 20.824 8.09484C20.5535 7.68621 20.4945 7.13369 20.6658 6.61283C20.7334 6.40995 20.8341 6.2416 20.9823 6.08477C21.1694 5.88765 21.3579 5.76966 21.6053 5.69628C21.7406 5.65599 22.0902 5.64016 22.2658 5.66606C22.6269 5.7193 22.9391 5.9193 23.1838 6.25167C23.2212 6.30203 23.2557 6.34376 23.2614 6.34376C23.2758 6.34376 23.9737 5.91642 24.1607 5.79556C24.3391 5.67901 24.342 5.66894 24.2485 5.53369C24.0039 5.17829 23.6888 4.90347 23.3046 4.71067ZM12.014 7.90779C11.9377 7.68621 11.9363 7.65311 11.9363 6.0229V4.51642H11.2384C10.6154 4.51642 10.5391 4.5193 10.5305 4.53944C10.5161 4.57829 10.5377 7.73513 10.555 7.89052C10.6025 8.3452 10.732 8.73081 10.9449 9.05599C11.0442 9.20563 11.3075 9.46894 11.4543 9.56534C12.1032 9.9898 13.1521 10.0474 13.8327 9.69628C13.9895 9.61714 14.1751 9.4747 14.2773 9.35671C14.3161 9.31498 14.3507 9.27901 14.3564 9.27901C14.3622 9.27901 14.3694 9.39988 14.3708 9.54808L14.3751 9.81858H15.0226H15.6701L15.6744 7.16678L15.6773 4.51642L14.9909 4.5193L14.3032 4.52362L14.2945 6.08477C14.2873 7.5255 14.2882 7.70276 14.2351 7.86202C14.2252 7.89156 14.2135 7.92047 14.1996 7.95671C14.0686 8.2934 13.7708 8.52937 13.3751 8.60995C13.2787 8.63009 13.2068 8.63297 13.037 8.62865C12.8427 8.62146 12.8082 8.61714 12.6845 8.57542C12.4917 8.51067 12.4068 8.45743 12.2672 8.31642C12.1363 8.18405 12.0744 8.08477 12.014 7.90779ZM18.3176 9.81858L18.3219 7.16678L18.3248 4.51642H17.6341H16.9435L16.942 5.2675V7.90491C16.9435 8.94088 16.9435 9.79844 16.9435 9.80851C16.9435 9.8229 17.0859 9.82578 17.6312 9.8229L18.3176 9.81858ZM27.0874 6.11354C27.0557 6.11498 26.1938 4.88908 26.0212 4.59844L25.9722 4.51642H25.2068C24.7852 4.51642 24.4399 4.52074 24.4399 4.52649C24.4399 4.55959 24.8672 5.15527 25.483 5.98261C25.9593 6.62002 26.1981 6.94376 26.224 6.98549C26.2384 7.00995 26.2384 7.0229 26.2168 7.06462C26.1751 7.14232 26.0125 7.38261 25.8284 7.63153C25.7348 7.75815 25.4945 8.08765 25.296 8.36534C25.1746 8.53428 25.0279 8.73818 24.9036 8.91093C24.8246 9.02068 24.7547 9.11785 24.7061 9.18549C24.3593 9.66462 24.2672 9.79844 24.2758 9.81283C24.2845 9.82865 25.7636 9.83009 25.7866 9.81426C25.7967 9.80851 25.9219 9.63297 26.0658 9.4229C26.1535 9.29604 26.2586 9.14452 26.348 9.01555C26.4067 8.93095 26.4586 8.85606 26.4945 8.80419C26.6442 8.5898 26.801 8.3639 26.9722 8.11642C27.0053 8.0675 27.0399 8.02721 27.0456 8.02721C27.0643 8.02721 27.1348 8.12793 27.5938 8.81139C27.8269 9.15959 28.0758 9.52793 28.1478 9.63153L28.2758 9.81858L29.0413 9.8229C29.5593 9.82434 29.8068 9.82146 29.8068 9.81139C29.8068 9.7898 29.7521 9.70635 29.6068 9.50491C29.5377 9.40851 29.3219 9.10203 29.1276 8.82578C28.9334 8.54808 28.5737 8.03729 28.3276 7.68908C28.0802 7.34088 27.8787 7.04304 27.8787 7.02721C27.8787 7.01139 27.942 6.91354 28.0183 6.81139C28.0335 6.7907 28.0512 6.76668 28.0705 6.74048C28.1479 6.63549 28.2511 6.49545 28.3248 6.39412C28.4168 6.2675 28.5794 6.04448 28.6873 5.89772C28.9406 5.54952 29.6312 4.56822 29.6427 4.53944C29.6514 4.5193 29.5838 4.51642 28.932 4.51642H28.2125L28.1694 4.56966C28.1463 4.59988 28.0744 4.70491 28.0082 4.80419C27.942 4.90347 27.7363 5.20131 27.5492 5.46606L27.5448 5.47235C27.106 6.09781 27.096 6.11211 27.0874 6.11354Z" fill="white"/>
<path d="M8.62404 8.76534L9.06145 9.20563C9.30174 9.44736 9.6154 9.76534 9.75641 9.91211C9.89742 10.0589 10.0528 10.2171 10.1003 10.2646C10.3636 10.5222 11.1722 11.3639 11.1636 11.3697C11.1579 11.374 10.7334 11.3812 10.2226 11.3869L9.2931 11.3984L8.68303 10.7812C8.34634 10.4416 7.99814 10.0862 7.90749 9.99124C7.81684 9.89628 7.70461 9.78117 7.65857 9.73369L7.57368 9.6488L7.33915 9.72362C7.21109 9.76534 7.09023 9.79988 7.07008 9.80131C7.04274 9.80419 6.91756 9.68189 6.41109 9.16678C6.0672 8.8157 5.78375 8.52218 5.78087 8.51498C5.77799 8.50779 5.82979 8.50203 5.90317 8.50203C6.05281 8.50203 6.24418 8.48189 6.40389 8.45024C6.77224 8.37542 7.19382 8.15096 7.47296 7.87901C7.51406 7.83915 7.55868 7.78625 7.6039 7.72505C8.01072 8.14159 8.23493 8.37018 8.62404 8.76534Z" fill="#FF5700"/>
</g>
<defs>
<filter id="filter0_d_94_5" x="1.89922" y="2.1582" width="27.9508" height="9.32657" filterUnits="userSpaceOnUse" color-interpolation-filters="sRGB">
<feFlood flood-opacity="0" result="BackgroundImageFix"/>
<feColorMatrix in="SourceAlpha" type="matrix" values="0 0 0 0 0 0 0 0 0 0 0 0 0 0 0 0 0 0 127 0" result="hardAlpha"/>
<feOffset dy="0.0431655"/>
<feGaussianBlur stdDeviation="0.0215827"/>
<feComposite in2="hardAlpha" operator="out"/>
<feColorMatrix type="matrix" values="0 0 0 0 0 0 0 0 0 0 0 0 0 0 0 0 0 0 0.25 0"/>
<feBlend mode="normal" in2="BackgroundImageFix" result="effect1_dropShadow_94_5"/>
<feBlend mode="normal" in="SourceGraphic" in2="effect1_dropShadow_94_5" result="shape"/>
</filter>
</defs>
</svg>
