<svg width="180" height="180" viewBox="0 0 180 180" fill="none" xmlns="http://www.w3.org/2000/svg">
<circle cx="90" cy="90" r="90" fill="#0B1920"/>
<g filter="url(#filter0_d_275_17)">
<path fill-rule="evenodd" clip-rule="evenodd" d="M102.525 68.4601C102.103 67.0324 100.872 65.9034 99.4003 65.5901C97.8633 65.2696 96.2317 65.714 95.1974 66.7411C94.396 67.5278 94.0467 68.4237 94.0467 69.6693C94.0467 70.9076 94.4183 71.8327 95.2485 72.6704C96.1734 73.5955 97.2735 73.9961 98.6794 73.9087C100.559 73.7994 102.081 72.583 102.532 70.8347C102.678 70.252 102.678 68.9773 102.525 68.4601ZM51.6818 72.8379C48.4331 69.6912 44.4341 67.9648 39.5245 67.6006C35.5547 67.3019 31.5629 68.1615 28.3433 70.0116C25.5972 71.5923 23.6669 73.3915 21.9187 75.9993C20.4036 78.2646 19.3911 80.8797 18.9686 83.6185C18.7865 84.8058 18.7865 87.9672 18.9686 89.1545C19.5368 92.8184 20.8042 95.834 22.8802 98.4418C23.4848 99.1993 25.0072 100.714 25.7939 101.341C27.9646 103.075 30.4995 104.291 33.333 104.961C34.9573 105.347 35.562 105.413 38.1041 105.449L40.4715 105.486L40.3258 105.318C40.2457 105.223 39.6556 104.582 39.0146 103.905C38.3664 103.22 36.895 101.654 35.7368 100.416C32.9105 97.3929 32.8595 97.3419 31.7888 96.6353C29.8075 95.3241 28.6056 94.013 27.6295 92.09C26.7044 90.2544 26.2819 88.4333 26.2892 86.2408C26.2892 82.7298 27.4911 79.889 29.9532 77.5435C31.7159 75.8681 34.1197 74.7974 36.8075 74.506C37.82 74.3967 39.6848 74.4696 40.6099 74.659C42.919 75.1252 44.9513 76.1814 46.5247 77.7474C47.4424 78.658 48.0179 79.4811 48.6297 80.7412C49.3873 82.2855 49.7661 83.684 49.9045 85.3667C50.0575 87.2533 49.7661 89.1326 49.0377 90.9318C48.6578 91.858 48.0661 92.8958 47.4935 93.6706C49.553 95.7794 50.688 96.9366 52.6579 98.9371L52.9274 98.653C54.3915 97.0869 55.8556 94.3772 56.5695 91.9151C57.0721 90.1743 57.2834 88.6009 57.2834 86.4957C57.2761 81.0326 55.3967 76.4509 51.6818 72.8379ZM126.978 78.4103C125.645 77.7474 124.254 77.325 122.746 77.1356C121.872 77.0263 119.643 76.9899 118.776 77.0627C116.496 77.2667 114.034 78.1189 112.119 79.3718C109.299 81.2075 107.224 84.1357 106.393 87.4427C106.087 88.6446 105.993 89.4385 105.993 90.7278C105.993 92.5998 106.204 93.9329 106.728 95.4698C108.003 99.1702 110.392 101.836 113.882 103.468C116.831 104.845 121.049 105.187 124.429 104.335C127.649 103.526 130.314 101.654 132.084 98.959C132.346 98.5592 132.465 98.3767 132.423 98.2443C132.389 98.133 132.241 98.057 131.968 97.9173C131.378 97.6187 128.384 95.9433 127.677 95.5135C127.328 95.3023 127.015 95.1275 126.986 95.1275C126.956 95.1275 126.847 95.2659 126.738 95.4407C126.41 95.9579 125.667 96.7883 125.164 97.2108C124.596 97.6842 123.446 98.267 122.666 98.4782C121.1 98.9007 118.995 98.755 117.487 98.114C116.358 97.6332 115.105 96.5843 114.42 95.5427C113.051 93.474 112.752 90.6769 113.619 88.04C113.962 87.0129 114.471 86.1607 115.222 85.3667C116.169 84.3688 117.123 83.7715 118.376 83.4C119.061 83.196 120.83 83.1159 121.719 83.247C123.547 83.5165 125.128 84.529 126.367 86.2116C126.556 86.4666 126.731 86.6778 126.76 86.6778C126.832 86.6778 130.366 84.5144 131.312 83.9026C132.215 83.3125 132.23 83.2616 131.757 82.5769C130.518 80.7776 128.923 79.3864 126.978 78.4103ZM69.8196 94.5957C69.4333 93.474 69.4262 93.3064 69.4262 85.0535V77.4269H65.8931C62.7392 77.4269 62.3529 77.4415 62.3094 77.5435C62.2365 77.7401 62.3458 93.7216 62.4334 94.5083C62.6739 96.8101 63.3295 98.7623 64.4073 100.409C64.91 101.166 66.2429 102.499 66.9861 102.987C70.2712 105.136 75.5812 105.428 79.0268 103.65C79.8206 103.249 80.7602 102.528 81.2775 101.931C81.474 101.72 81.6491 101.538 81.678 101.538C81.7073 101.538 81.7438 102.149 81.7509 102.9L81.7727 104.269H85.0506H88.3286L88.3504 90.8444L88.365 77.4269L84.8901 77.4415L81.4087 77.4634L81.3646 85.3667C81.3282 92.6604 81.3327 93.5578 81.0639 94.364C81.0138 94.5136 80.9546 94.6599 80.8842 94.8434C80.221 96.5479 78.7134 97.7425 76.7102 98.1504C76.2221 98.2524 75.8581 98.267 74.9985 98.2451C74.0149 98.2087 73.8402 98.1868 73.214 97.9756C72.2379 97.6478 71.8081 97.3783 71.1014 96.6644C70.4387 95.9943 70.1254 95.4917 69.8196 94.5957ZM101.732 104.269L101.753 90.8444L101.768 77.4269H98.2713H94.7752L94.7676 81.2293V94.5812C94.7752 99.8258 94.7752 104.167 94.7752 104.218C94.7752 104.291 95.4961 104.306 98.2567 104.291L101.732 104.269ZM146.129 85.5123C145.968 85.5196 141.605 79.3135 140.731 77.8422L140.483 77.4269H136.608C134.474 77.4269 132.726 77.4488 132.726 77.4779C132.726 77.6455 134.889 80.6611 138.006 84.8495C140.418 88.0764 141.627 89.7153 141.758 89.9266C141.831 90.0504 141.831 90.116 141.721 90.3272C141.51 90.7205 140.687 91.937 139.755 93.1972C139.281 93.8382 138.065 95.5063 137.06 96.9121C136.445 97.7673 135.702 98.7996 135.073 99.6741C134.673 100.23 134.319 100.722 134.073 101.064C132.318 103.49 131.851 104.167 131.895 104.24C131.939 104.32 139.427 104.327 139.543 104.247C139.595 104.218 140.228 103.329 140.957 102.266C141.401 101.624 141.933 100.857 142.385 100.204C142.683 99.7755 142.945 99.3964 143.127 99.1338C143.885 98.0484 144.679 96.9048 145.545 95.6519C145.713 95.4043 145.888 95.2003 145.917 95.2003C146.012 95.2003 146.369 95.7102 148.692 99.1702C149.872 100.933 151.132 102.798 151.497 103.322L152.145 104.269L156.02 104.291C158.643 104.298 159.896 104.284 159.896 104.233C159.896 104.123 159.619 103.701 158.883 102.681C158.533 102.193 157.441 100.642 156.457 99.2431C155.474 97.8372 153.653 95.2513 152.407 93.4885C151.155 91.7258 150.135 90.2179 150.135 90.1378C150.135 90.0577 150.455 89.5623 150.841 89.0452C150.918 88.9405 151.008 88.8189 151.106 88.6862C151.497 88.1547 152.02 87.4458 152.393 86.9328C152.859 86.2918 153.682 85.1627 154.228 84.4198C155.51 82.657 159.007 77.6892 159.065 77.5435C159.109 77.4415 158.767 77.4269 155.467 77.4269H151.824L151.606 77.6965C151.489 77.8494 151.125 78.3812 150.79 78.8838C150.455 79.3864 149.414 80.8942 148.467 82.2345L148.444 82.2663C146.223 85.4327 146.172 85.5051 146.129 85.5123Z" fill="white"/>
<path d="M52.65 98.9361L54.8644 101.165C56.0808 102.389 57.6687 103.999 58.3826 104.742C59.0965 105.485 59.8831 106.286 60.1236 106.526C61.4565 107.83 65.55 112.091 65.5065 112.121C65.4777 112.142 63.3286 112.179 60.7427 112.208L56.0371 112.266L52.9486 109.141C51.2441 107.422 49.4814 105.623 49.0225 105.142C48.5635 104.662 47.9954 104.079 47.7623 103.838L47.3325 103.409L46.1452 103.787C45.4969 103.999 44.8851 104.174 44.7831 104.181C44.6447 104.195 44.0109 103.576 41.4469 100.968C39.706 99.1911 38.271 97.7052 38.2564 97.6687C38.2419 97.6323 38.5041 97.6031 38.8756 97.6031C39.6331 97.6031 40.6019 97.5012 41.4105 97.341C43.2752 96.9622 45.4095 95.8258 46.8226 94.4491C47.0307 94.2473 47.2566 93.9795 47.4855 93.6697C49.5451 95.7784 50.6801 96.9356 52.65 98.9361Z" fill="#FF5700"/>
</g>
<defs>
<filter id="filter0_d_275_17" x="18.6135" y="65.4877" width="141.502" height="47.2154" filterUnits="userSpaceOnUse" color-interpolation-filters="sRGB">
<feFlood flood-opacity="0" result="BackgroundImageFix"/>
<feColorMatrix in="SourceAlpha" type="matrix" values="0 0 0 0 0 0 0 0 0 0 0 0 0 0 0 0 0 0 127 0" result="hardAlpha"/>
<feOffset dy="0.218525"/>
<feGaussianBlur stdDeviation="0.109262"/>
<feComposite in2="hardAlpha" operator="out"/>
<feColorMatrix type="matrix" values="0 0 0 0 0 0 0 0 0 0 0 0 0 0 0 0 0 0 0.25 0"/>
<feBlend mode="normal" in2="BackgroundImageFix" result="effect1_dropShadow_275_17"/>
<feBlend mode="normal" in="SourceGraphic" in2="effect1_dropShadow_275_17" result="shape"/>
</filter>
</defs>
</svg>
