<svg width="745" height="296" viewBox="0 0 745 296" fill="none" xmlns="http://www.w3.org/2000/svg">
<g clip-path="url(#clip0_84_6)">
<path d="M193.775 213.96C199.011 211.286 203.976 208.11 208.584 204.467C219.646 195.721 228.646 184.288 234.37 170.662C234.829 169.571 235.262 168.477 235.67 167.378C249.727 129.54 233.992 87.9963 199.361 67.1201C220.013 87.0528 229.687 115.795 224.222 144.043C223.139 149.643 220.476 172.302 203.813 184.925C189.659 197.596 168.574 202.055 149.386 194.697C122.99 184.576 110.179 155.927 120.773 130.708C121.012 130.139 121.261 129.576 121.52 129.02C118.458 132.905 115.875 137.237 113.889 141.966C101.946 170.397 115.966 202.632 145.232 214.702C145.707 214.898 146.185 215.088 146.668 215.273C154.374 218.228 162.346 219.519 170.15 219.325C178.383 219.121 186.429 217.263 193.775 213.96Z" fill="#B70046" stroke="#B70046" stroke-width="3.5" stroke-linecap="round" stroke-linejoin="round"/>
<path d="M99.2258 61.0402C93.9898 63.7143 89.0248 66.89 84.4168 70.5329C73.3548 79.2786 64.3548 90.7117 58.6308 104.338C58.1718 105.429 57.7388 106.523 57.3308 107.622C43.2738 145.46 59.0088 187.004 93.6398 207.88C72.9878 187.947 63.3138 159.205 68.7788 130.957C69.8618 125.357 72.5249 102.698 89.1878 90.0745C103.342 77.4041 124.427 72.9453 143.615 80.3028C170.011 90.4242 182.822 119.073 172.228 144.292C171.989 144.861 171.74 145.424 171.481 145.98C174.543 142.095 177.126 137.763 179.112 133.034C191.055 104.603 177.035 72.3682 147.769 60.2978C147.294 60.102 146.816 59.9119 146.333 59.7265C138.627 56.7715 130.655 55.4808 122.851 55.6747C114.618 55.8792 106.572 57.7374 99.2258 61.0402Z" fill="#B70046" stroke="#B70046" stroke-width="3.5" stroke-linecap="round" stroke-linejoin="round"/>
</g>
<path d="M266.105 196C264.654 196 263.459 195.531 262.521 194.592C261.582 193.653 261.113 192.459 261.113 191.008V101.024C261.113 99.5733 261.582 98.3787 262.521 97.44C263.459 96.5013 264.654 96.032 266.105 96.032C267.641 96.032 268.921 96.6293 269.945 97.824L331.129 178.208V101.024C331.129 99.5733 331.598 98.3787 332.537 97.44C333.475 96.5013 334.67 96.032 336.121 96.032C337.486 96.032 338.638 96.5013 339.577 97.44C340.601 98.3787 341.113 99.5733 341.113 101.024V191.008C341.113 192.459 340.601 193.653 339.577 194.592C338.638 195.531 337.486 196 336.121 196C335.438 196 334.755 195.872 334.073 195.616C333.39 195.36 332.835 194.933 332.409 194.336L271.097 113.952V191.008C271.097 192.459 270.585 193.653 269.561 194.592C268.622 195.531 267.47 196 266.105 196ZM397.202 196.64C390.29 196.64 384.146 195.147 378.77 192.16C373.479 189.088 369.297 184.864 366.226 179.488C363.239 174.112 361.746 167.968 361.746 161.056C361.746 154.059 363.154 147.915 365.97 142.624C368.871 137.248 372.839 133.024 377.874 129.952C382.908 126.88 388.711 125.344 395.282 125.344C401.767 125.344 407.399 126.837 412.178 129.824C417.042 132.725 420.796 136.779 423.442 141.984C426.087 147.189 427.41 153.12 427.41 159.776C427.41 161.141 426.983 162.251 426.13 163.104C425.276 163.872 424.167 164.256 422.802 164.256H368.402V156.064H423.826L418.322 160.032C418.407 155.083 417.511 150.645 415.634 146.72C413.756 142.795 411.068 139.723 407.57 137.504C404.156 135.285 400.06 134.176 395.282 134.176C390.418 134.176 386.151 135.328 382.482 137.632C378.812 139.936 375.954 143.136 373.906 147.232C371.943 151.243 370.962 155.851 370.962 161.056C370.962 166.261 372.071 170.869 374.29 174.88C376.594 178.891 379.708 182.048 383.634 184.352C387.559 186.656 392.082 187.808 397.202 187.808C400.274 187.808 403.346 187.296 406.418 186.272C409.575 185.163 412.092 183.797 413.97 182.176C414.908 181.408 415.975 181.024 417.17 181.024C418.364 180.939 419.388 181.237 420.242 181.92C421.351 182.944 421.906 184.053 421.906 185.248C421.991 186.443 421.522 187.467 420.498 188.32C417.682 190.709 414.098 192.715 409.746 194.336C405.394 195.872 401.212 196.64 397.202 196.64ZM452.787 196C451.507 196 450.397 195.573 449.458 194.72C448.52 193.781 448.051 192.544 448.051 191.008V126.112C448.051 120.139 449.075 114.891 451.123 110.368C453.171 105.845 456.2 102.347 460.211 99.872C464.221 97.312 469.128 96.032 474.931 96.032C476.381 96.032 477.576 96.4587 478.515 97.312C479.453 98.1653 479.923 99.232 479.923 100.512C479.923 101.792 479.453 102.859 478.515 103.712C477.576 104.565 476.381 104.992 474.931 104.992C471.091 104.992 467.891 105.888 465.331 107.68C462.856 109.387 460.979 111.819 459.699 114.976C458.504 118.048 457.907 121.589 457.907 125.6V191.008C457.907 192.544 457.437 193.781 456.499 194.72C455.645 195.573 454.408 196 452.787 196ZM439.859 137.12C438.493 137.12 437.384 136.736 436.531 135.968C435.763 135.115 435.379 134.091 435.379 132.896C435.379 131.616 435.763 130.592 436.531 129.824C437.384 128.971 438.493 128.544 439.859 128.544H473.267C474.632 128.544 475.699 128.971 476.467 129.824C477.32 130.592 477.747 131.616 477.747 132.896C477.747 134.091 477.32 135.115 476.467 135.968C475.699 136.736 474.632 137.12 473.267 137.12H439.859ZM519.306 196.64C512.735 196.64 506.847 195.104 501.642 192.032C496.436 188.875 492.297 184.608 489.226 179.232C486.239 173.856 484.746 167.797 484.746 161.056C484.746 154.229 486.282 148.128 489.354 142.752C492.511 137.376 496.778 133.152 502.154 130.08C507.53 126.923 513.588 125.344 520.33 125.344C527.071 125.344 533.087 126.923 538.378 130.08C543.754 133.152 547.978 137.376 551.05 142.752C554.207 148.128 555.828 154.229 555.914 161.056L551.946 164.128C551.946 170.272 550.495 175.819 547.594 180.768C544.778 185.632 540.895 189.515 535.946 192.416C531.082 195.232 525.535 196.64 519.306 196.64ZM520.33 187.68C525.279 187.68 529.674 186.528 533.514 184.224C537.439 181.92 540.511 178.763 542.729 174.752C545.034 170.656 546.186 166.091 546.186 161.056C546.186 155.936 545.034 151.371 542.729 147.36C540.511 143.349 537.439 140.192 533.514 137.888C529.674 135.499 525.279 134.304 520.33 134.304C515.466 134.304 511.071 135.499 507.146 137.888C503.22 140.192 500.106 143.349 497.802 147.36C495.498 151.371 494.346 155.936 494.346 161.056C494.346 166.091 495.498 170.656 497.802 174.752C500.106 178.763 503.22 181.92 507.146 184.224C511.071 186.528 515.466 187.68 520.33 187.68ZM550.922 196C549.471 196 548.276 195.573 547.338 194.72C546.399 193.781 545.93 192.587 545.93 191.136V169.248L548.362 159.136L555.914 161.056V191.136C555.914 192.587 555.444 193.781 554.506 194.72C553.567 195.573 552.372 196 550.922 196ZM579.179 152.864C579.435 147.573 580.8 142.837 583.275 138.656C585.835 134.475 589.12 131.189 593.131 128.8C597.227 126.411 601.749 125.216 606.699 125.216C610.624 125.216 613.653 125.771 615.787 126.88C617.92 127.989 618.731 129.611 618.219 131.744C617.877 133.024 617.28 133.877 616.427 134.304C615.659 134.731 614.677 134.901 613.483 134.816C612.373 134.731 611.093 134.645 609.643 134.56C604.864 134.133 600.597 134.645 596.843 136.096C593.173 137.461 590.229 139.595 588.011 142.496C585.877 145.397 584.811 148.853 584.811 152.864H579.179ZM579.947 196C578.411 196 577.216 195.573 576.363 194.72C575.509 193.867 575.083 192.672 575.083 191.136V130.848C575.083 129.312 575.509 128.117 576.363 127.264C577.216 126.411 578.411 125.984 579.947 125.984C581.483 125.984 582.677 126.411 583.531 127.264C584.384 128.117 584.811 129.312 584.811 130.848V191.136C584.811 192.672 584.384 193.867 583.531 194.72C582.677 195.573 581.483 196 579.947 196ZM659.431 196.64C652.86 196.64 646.972 195.104 641.767 192.032C636.561 188.875 632.422 184.608 629.351 179.232C626.364 173.856 624.871 167.797 624.871 161.056C624.871 154.229 626.407 148.128 629.479 142.752C632.636 137.376 636.903 133.152 642.279 130.08C647.655 126.923 653.713 125.344 660.455 125.344C667.196 125.344 673.212 126.923 678.503 130.08C683.879 133.152 688.103 137.376 691.175 142.752C694.332 148.128 695.953 154.229 696.039 161.056L692.071 164.128C692.071 170.272 690.62 175.819 687.719 180.768C684.903 185.632 681.02 189.515 676.071 192.416C671.207 195.232 665.66 196.64 659.431 196.64ZM660.455 187.68C665.404 187.68 669.799 186.528 673.639 184.224C677.564 181.92 680.636 178.763 682.854 174.752C685.159 170.656 686.311 166.091 686.311 161.056C686.311 155.936 685.159 151.371 682.854 147.36C680.636 143.349 677.564 140.192 673.639 137.888C669.799 135.499 665.404 134.304 660.455 134.304C655.591 134.304 651.196 135.499 647.271 137.888C643.345 140.192 640.231 143.349 637.927 147.36C635.623 151.371 634.471 155.936 634.471 161.056C634.471 166.091 635.623 170.656 637.927 174.752C640.231 178.763 643.345 181.92 647.271 184.224C651.196 186.528 655.591 187.68 660.455 187.68ZM691.047 196C689.596 196 688.401 195.573 687.463 194.72C686.524 193.781 686.055 192.587 686.055 191.136V169.248L688.487 159.136L696.039 161.056V191.136C696.039 192.587 695.569 193.781 694.631 194.72C693.692 195.573 692.497 196 691.047 196Z" fill="#B70046"/>
<defs>
<clipPath id="clip0_84_6">
<rect width="271" height="257" fill="white" transform="translate(11 9)"/>
</clipPath>
</defs>
</svg>
